<svg xmlns="http://www.w3.org/2000/svg" width="1024" height="1024" viewBox="0 0 1024 1024">
  <rect width="1024" height="1024" fill="#F6F1E7"/>
  <g fill-rule="evenodd" clip-rule="evenodd" transform="translate(512,512) scale(0.78) translate(-596,-618)">
    <path id="fleur-de-lys" d="M 434 855 L 422 867 L 418 873 L 412 886 L 411 893 L 410 894 L 410 899 L 409 900 L 409 919 L 410 920 L 411 930 L 414 939 L 417 944 L 417 946 L 424 957 L 435 969 L 446 977 L 459 983 L 465 984 L 466 985 L 470 985 L 471 986 L 477 986 L 478 987 L 500 986 L 512 982 L 515 982 L 526 977 L 528 975 L 530 978 L 530 984 L 531 985 L 532 993 L 536 1000 L 536 1002 L 539 1008 L 550 1024 L 586 1066 L 601 1086 L 609 1098 L 613 1106 L 617 1111 L 627 1132 L 636 1112 L 654 1083 L 660 1076 L 665 1068 L 701 1024 L 712 1008 L 719 992 L 719 989 L 721 984 L 721 980 L 723 978 L 739 984 L 747 985 L 748 986 L 755 986 L 756 987 L 771 987 L 772 986 L 778 986 L 779 985 L 782 985 L 783 984 L 786 984 L 792 982 L 808 973 L 814 967 L 815 967 L 815 966 L 822 959 L 832 942 L 836 930 L 836 927 L 837 926 L 837 920 L 838 919 L 838 900 L 837 899 L 836 889 L 832 880 L 832 878 L 830 876 L 829 873 L 825 867 L 813 855 L 807 851 L 797 847 L 787 846 L 786 845 L 774 846 L 766 849 L 772 852 L 778 857 L 784 867 L 785 874 L 786 875 L 785 889 L 782 897 L 776 906 L 768 913 L 756 918 L 740 918 L 731 915 L 723 910 L 709 895 L 698 876 L 698 874 L 694 866 L 691 857 L 691 854 L 689 850 L 689 847 L 688 846 L 688 843 L 685 834 L 685 830 L 684 829 L 682 812 L 679 811 L 678 812 L 678 820 L 679 821 L 681 840 L 683 845 L 683 849 L 684 850 L 685 857 L 689 866 L 691 874 L 695 881 L 695 883 L 697 885 L 700 892 L 706 901 L 716 912 L 726 919 L 735 923 L 739 923 L 740 924 L 756 924 L 770 919 L 783 907 L 790 893 L 792 878 L 791 877 L 791 871 L 790 870 L 789 864 L 786 858 L 780 852 L 781 851 L 789 851 L 790 852 L 797 853 L 805 857 L 812 862 L 818 868 L 824 876 L 828 884 L 830 890 L 830 893 L 831 894 L 831 898 L 832 899 L 832 920 L 831 921 L 831 925 L 830 926 L 830 929 L 827 938 L 818 954 L 801 970 L 792 975 L 790 975 L 781 979 L 770 980 L 769 981 L 756 981 L 755 980 L 749 980 L 748 979 L 744 979 L 743 978 L 740 978 L 734 976 L 718 968 L 710 962 L 697 949 L 684 930 L 674 910 L 673 905 L 671 902 L 666 887 L 666 884 L 665 883 L 665 880 L 662 871 L 662 867 L 660 862 L 659 851 L 658 850 L 658 844 L 657 843 L 657 837 L 656 836 L 656 828 L 655 827 L 655 815 L 654 814 L 654 811 L 650 811 L 650 831 L 651 832 L 651 843 L 652 844 L 653 858 L 654 859 L 654 863 L 655 864 L 655 868 L 656 869 L 656 873 L 657 874 L 659 885 L 661 889 L 661 892 L 666 907 L 676 929 L 688 948 L 706 967 L 716 974 L 716 977 L 715 978 L 715 983 L 714 984 L 714 987 L 712 993 L 704 1009 L 688 1030 L 668 1053 L 651 1075 L 637 1096 L 627 1115 L 616 1096 L 597 1069 L 549 1012 L 540 996 L 537 987 L 537 984 L 536 983 L 536 979 L 535 978 L 535 972 L 540 969 L 551 959 L 566 939 L 578 916 L 578 914 L 582 906 L 587 891 L 587 888 L 589 884 L 589 881 L 591 876 L 591 872 L 593 867 L 593 862 L 594 861 L 594 856 L 595 855 L 595 850 L 596 849 L 596 842 L 597 841 L 597 833 L 598 832 L 599 812 L 598 811 L 595 811 L 593 830 L 592 831 L 592 837 L 591 838 L 591 844 L 590 845 L 590 850 L 589 851 L 589 856 L 588 857 L 587 866 L 586 867 L 583 882 L 581 886 L 581 889 L 577 901 L 575 904 L 575 906 L 568 922 L 553 946 L 537 963 L 525 971 L 508 978 L 500 979 L 499 980 L 493 980 L 492 981 L 480 981 L 479 980 L 467 979 L 450 972 L 439 964 L 432 957 L 422 942 L 416 925 L 416 920 L 415 919 L 415 899 L 416 898 L 416 894 L 417 893 L 418 887 L 425 873 L 435 862 L 448 854 L 454 852 L 458 852 L 459 851 L 466 851 L 467 852 L 463 856 L 458 865 L 457 872 L 456 873 L 456 886 L 457 887 L 457 891 L 459 897 L 465 908 L 473 916 L 487 923 L 491 923 L 492 924 L 507 924 L 508 923 L 511 923 L 517 921 L 530 913 L 538 905 L 548 891 L 556 875 L 556 873 L 558 870 L 562 858 L 562 855 L 563 854 L 563 851 L 566 842 L 566 838 L 568 832 L 568 826 L 569 825 L 570 812 L 567 811 L 565 814 L 565 819 L 564 820 L 564 825 L 563 826 L 561 840 L 556 855 L 556 858 L 552 867 L 552 869 L 550 872 L 550 874 L 543 888 L 537 897 L 524 910 L 518 914 L 511 917 L 508 917 L 507 918 L 493 918 L 492 917 L 488 917 L 485 915 L 483 915 L 478 912 L 469 903 L 464 894 L 463 888 L 462 887 L 462 872 L 463 871 L 463 868 L 467 860 L 475 852 L 481 849 L 480 848 L 474 846 L 461 845 L 460 846 L 455 846 L 454 847 L 447 848 Z M 1008 529 L 1003 522 L 992 510 L 972 495 L 950 484 L 945 483 L 942 481 L 927 478 L 926 477 L 912 476 L 911 475 L 887 475 L 886 476 L 878 476 L 877 477 L 872 477 L 871 478 L 867 478 L 866 479 L 855 481 L 846 485 L 841 486 L 838 488 L 836 488 L 815 499 L 791 516 L 766 540 L 746 565 L 733 585 L 727 597 L 725 599 L 713 624 L 713 626 L 709 634 L 701 658 L 701 661 L 697 673 L 699 673 L 704 668 L 709 652 L 711 649 L 712 644 L 719 629 L 719 627 L 737 592 L 757 562 L 766 551 L 777 540 L 777 539 L 793 524 L 816 507 L 834 497 L 836 497 L 845 492 L 860 487 L 863 487 L 868 485 L 872 485 L 873 484 L 877 484 L 878 483 L 885 483 L 886 482 L 913 482 L 914 483 L 926 484 L 927 485 L 930 485 L 931 486 L 934 486 L 935 487 L 938 487 L 947 490 L 961 497 L 965 498 L 987 512 L 1008 530 Z M 197 573 L 189 597 L 188 605 L 187 606 L 187 611 L 186 612 L 186 618 L 185 619 L 185 652 L 186 653 L 186 660 L 187 661 L 189 674 L 194 689 L 199 698 L 199 700 L 211 719 L 231 740 L 250 753 L 266 760 L 276 762 L 277 763 L 288 764 L 289 765 L 305 765 L 292 749 L 287 739 L 285 729 L 284 728 L 284 724 L 283 723 L 283 709 L 284 708 L 284 703 L 285 702 L 285 698 L 288 689 L 291 683 L 301 668 L 310 659 L 324 649 L 334 644 L 336 644 L 339 642 L 348 639 L 351 639 L 356 637 L 361 637 L 362 636 L 371 636 L 372 635 L 385 635 L 386 636 L 394 636 L 395 637 L 400 637 L 401 638 L 409 639 L 418 642 L 423 645 L 425 645 L 435 650 L 447 658 L 465 674 L 480 692 L 491 709 L 500 727 L 500 729 L 503 734 L 505 741 L 508 742 L 503 724 L 493 702 L 483 686 L 471 671 L 453 654 L 438 644 L 424 637 L 409 632 L 402 631 L 401 630 L 385 629 L 384 628 L 371 628 L 370 629 L 360 629 L 359 630 L 346 632 L 334 636 L 331 638 L 329 638 L 318 644 L 309 650 L 299 659 L 288 673 L 281 687 L 278 701 L 277 702 L 277 708 L 276 709 L 276 721 L 277 722 L 277 728 L 278 729 L 279 737 L 286 752 L 290 757 L 289 758 L 281 757 L 263 751 L 248 743 L 236 734 L 221 719 L 214 710 L 209 702 L 200 683 L 196 671 L 196 668 L 195 667 L 194 657 L 193 656 L 193 650 L 192 649 L 192 622 L 193 621 L 193 614 L 194 613 L 194 608 L 195 607 L 195 603 L 196 602 L 197 595 L 201 583 L 203 580 L 203 578 L 214 556 L 227 538 L 234 531 L 234 530 L 249 516 L 266 504 L 287 493 L 314 484 L 318 484 L 324 482 L 330 482 L 331 481 L 339 481 L 340 480 L 362 480 L 363 481 L 378 482 L 379 483 L 383 483 L 384 484 L 395 486 L 404 490 L 409 491 L 414 494 L 416 494 L 433 503 L 447 512 L 470 531 L 490 552 L 498 562 L 513 584 L 531 617 L 531 619 L 537 630 L 537 632 L 543 645 L 548 662 L 550 665 L 550 668 L 555 683 L 555 687 L 557 691 L 557 695 L 558 696 L 558 699 L 560 704 L 560 708 L 561 709 L 561 714 L 562 715 L 562 720 L 563 721 L 563 726 L 564 727 L 564 732 L 565 733 L 565 739 L 566 742 L 570 742 L 570 732 L 569 731 L 568 715 L 567 714 L 566 703 L 565 702 L 565 698 L 564 697 L 564 693 L 563 692 L 563 688 L 562 687 L 559 672 L 556 665 L 556 662 L 550 644 L 548 641 L 544 629 L 535 611 L 535 609 L 525 590 L 501 554 L 477 527 L 476 527 L 461 513 L 449 504 L 438 497 L 433 495 L 431 493 L 419 487 L 417 487 L 407 482 L 398 479 L 395 479 L 391 477 L 388 477 L 387 476 L 382 476 L 381 475 L 370 474 L 369 473 L 356 473 L 355 472 L 324 474 L 323 475 L 314 476 L 313 477 L 310 477 L 309 478 L 306 478 L 305 479 L 302 479 L 293 482 L 265 495 L 241 512 L 225 528 L 217 538 L 206 555 Z M 627 104 L 610 134 L 549 226 L 537 248 L 535 250 L 522 276 L 522 278 L 519 283 L 519 285 L 513 298 L 506 319 L 506 322 L 505 323 L 505 326 L 502 335 L 501 344 L 500 345 L 499 357 L 498 358 L 498 367 L 497 368 L 497 405 L 498 406 L 498 415 L 499 416 L 500 429 L 501 430 L 501 434 L 502 435 L 502 439 L 503 440 L 503 444 L 504 445 L 504 449 L 505 450 L 507 461 L 523 509 L 528 519 L 532 531 L 538 543 L 539 548 L 546 562 L 546 564 L 549 569 L 549 571 L 551 574 L 551 576 L 561 599 L 564 610 L 566 613 L 574 637 L 574 640 L 577 647 L 577 650 L 579 654 L 579 658 L 581 662 L 581 665 L 582 666 L 582 669 L 585 678 L 585 682 L 587 688 L 587 693 L 589 699 L 589 704 L 591 710 L 591 716 L 592 717 L 594 736 L 598 736 L 597 713 L 596 712 L 596 706 L 595 705 L 595 698 L 594 697 L 593 686 L 592 685 L 590 671 L 589 670 L 584 647 L 582 643 L 582 640 L 579 633 L 579 630 L 570 603 L 568 600 L 566 592 L 564 589 L 564 587 L 562 584 L 558 572 L 555 567 L 555 565 L 553 562 L 549 550 L 543 538 L 539 526 L 534 516 L 533 511 L 529 503 L 527 495 L 522 484 L 522 481 L 516 465 L 516 462 L 515 461 L 515 458 L 514 457 L 514 454 L 513 453 L 513 450 L 510 441 L 508 425 L 507 424 L 507 419 L 506 418 L 505 396 L 504 395 L 504 381 L 505 380 L 505 365 L 506 364 L 507 350 L 508 349 L 508 345 L 509 344 L 509 340 L 510 339 L 510 335 L 511 334 L 513 323 L 520 302 L 522 299 L 526 287 L 530 280 L 530 278 L 540 258 L 542 256 L 545 249 L 547 247 L 555 232 L 613 145 L 614 142 L 620 134 L 627 122 L 630 125 L 634 133 L 650 156 L 651 159 L 656 165 L 661 174 L 664 177 L 674 193 L 677 196 L 678 199 L 698 229 L 699 232 L 707 244 L 709 249 L 711 251 L 726 281 L 726 283 L 730 290 L 733 300 L 735 303 L 740 318 L 743 332 L 744 333 L 744 337 L 745 338 L 746 347 L 747 348 L 748 364 L 749 365 L 749 380 L 750 381 L 748 417 L 747 418 L 747 424 L 746 425 L 746 430 L 745 431 L 743 445 L 742 446 L 738 465 L 730 489 L 723 505 L 722 510 L 720 513 L 718 520 L 715 525 L 713 532 L 710 537 L 708 544 L 705 549 L 705 551 L 702 556 L 700 563 L 697 568 L 697 570 L 689 588 L 688 593 L 686 596 L 684 604 L 682 607 L 674 631 L 671 645 L 669 649 L 669 653 L 668 654 L 667 662 L 665 667 L 664 676 L 663 677 L 663 682 L 662 683 L 662 688 L 661 689 L 661 696 L 660 697 L 660 704 L 666 699 L 666 693 L 667 692 L 669 678 L 670 677 L 670 674 L 673 665 L 673 661 L 674 660 L 675 653 L 677 649 L 677 646 L 680 639 L 680 636 L 683 629 L 683 626 L 686 617 L 688 614 L 690 606 L 692 603 L 693 598 L 695 595 L 695 593 L 697 590 L 701 578 L 704 573 L 704 571 L 707 566 L 707 564 L 710 559 L 712 552 L 715 547 L 717 540 L 720 535 L 720 533 L 723 528 L 723 526 L 731 508 L 732 503 L 734 500 L 735 495 L 737 492 L 743 474 L 743 471 L 746 464 L 746 461 L 747 460 L 747 457 L 748 456 L 748 453 L 751 444 L 751 440 L 752 439 L 752 434 L 753 433 L 753 428 L 754 427 L 754 422 L 755 421 L 755 413 L 756 412 L 756 400 L 757 399 L 757 371 L 756 370 L 756 359 L 755 358 L 755 351 L 754 350 L 753 339 L 752 338 L 752 334 L 751 333 L 748 318 L 746 314 L 746 311 L 742 299 L 738 291 L 737 286 L 733 279 L 733 277 L 723 256 L 721 254 L 718 247 L 716 245 L 713 238 L 711 236 L 701 218 L 662 159 L 657 153 L 656 150 L 646 136 L 645 133 L 636 120 Z" fill="#0950AF" stroke="#0950AF" stroke-width="7" stroke-linejoin="round" stroke-linecap="round"/>
    <path id="horse" d="M 269 836 L 268 837 L 262 838 L 254 842 L 252 842 L 234 851 L 215 864 L 197 882 L 189 892 L 178 909 L 175 916 L 173 918 L 169 927 L 167 929 L 163 937 L 154 950 L 133 970 L 127 974 L 105 984 L 102 984 L 93 987 L 89 987 L 88 988 L 83 988 L 82 989 L 72 989 L 73 990 L 81 990 L 82 991 L 100 991 L 101 990 L 112 989 L 113 988 L 116 988 L 128 984 L 140 978 L 156 966 L 167 954 L 175 942 L 200 895 L 214 876 L 229 861 L 243 850 L 246 849 L 256 842 Z M 335 795 L 306 795 L 305 796 L 292 796 L 291 797 L 285 797 L 284 798 L 278 798 L 277 799 L 268 800 L 267 801 L 259 802 L 251 805 L 248 805 L 239 809 L 234 810 L 210 822 L 195 833 L 182 846 L 170 863 L 162 880 L 159 889 L 156 904 L 165 884 L 180 863 L 193 850 L 213 835 L 242 820 L 244 820 L 254 815 L 259 814 L 262 812 L 280 806 L 283 806 L 287 804 L 290 804 L 291 803 L 294 803 L 295 802 L 298 802 L 307 799 L 311 799 L 312 798 L 316 798 L 322 796 L 327 796 L 328 795 Z M 1063 503 L 1054 512 L 1036 526 L 1000 547 L 989 546 L 988 545 L 953 545 L 952 546 L 944 546 L 943 547 L 927 549 L 926 550 L 915 552 L 911 554 L 908 554 L 901 557 L 898 557 L 892 560 L 887 561 L 884 563 L 879 564 L 843 581 L 841 583 L 819 595 L 808 603 L 805 604 L 766 632 L 729 662 L 691 696 L 666 716 L 635 736 L 611 747 L 596 752 L 589 753 L 588 754 L 584 754 L 578 756 L 572 756 L 571 757 L 564 757 L 563 758 L 525 758 L 524 757 L 513 757 L 512 756 L 502 756 L 501 755 L 485 755 L 484 754 L 461 754 L 460 755 L 440 756 L 439 757 L 434 757 L 433 758 L 424 759 L 423 760 L 412 762 L 408 764 L 405 764 L 396 767 L 393 769 L 388 770 L 369 779 L 367 781 L 355 787 L 339 798 L 321 813 L 294 839 L 274 853 L 266 857 L 260 862 L 256 864 L 241 878 L 228 896 L 217 918 L 212 933 L 212 936 L 210 940 L 209 948 L 212 939 L 216 932 L 216 930 L 226 912 L 241 892 L 254 879 L 264 871 L 288 857 L 302 847 L 342 809 L 369 791 L 395 779 L 410 774 L 413 774 L 422 771 L 426 771 L 427 770 L 431 770 L 432 769 L 437 769 L 438 768 L 455 767 L 456 766 L 486 766 L 487 767 L 500 767 L 501 768 L 521 769 L 522 770 L 554 771 L 555 770 L 569 770 L 570 769 L 575 769 L 576 768 L 581 768 L 582 767 L 591 766 L 592 765 L 599 764 L 617 758 L 631 751 L 633 751 L 648 743 L 672 727 L 706 699 L 732 675 L 776 639 L 795 625 L 802 621 L 805 618 L 845 593 L 858 587 L 860 585 L 868 581 L 870 581 L 891 571 L 896 570 L 899 568 L 911 564 L 925 561 L 929 559 L 933 559 L 934 558 L 938 558 L 944 556 L 950 556 L 951 555 L 959 555 L 960 554 L 990 554 L 991 555 L 998 555 L 1001 556 L 1003 554 L 1010 551 L 1029 539 L 1034 537 L 1049 526 L 1050 527 L 1049 532 L 1042 547 L 1042 549 L 1034 563 L 1034 565 L 1061 597 L 1064 605 L 1065 622 L 1071 640 L 1081 659 L 1083 661 L 1087 670 L 1089 672 L 1092 679 L 1098 688 L 1112 715 L 1113 724 L 1108 738 L 1101 746 L 1091 752 L 1088 752 L 1087 753 L 1078 753 L 1072 751 L 1066 745 L 1063 739 L 1063 737 L 1058 729 L 1049 719 L 1039 711 L 1023 702 L 1011 698 L 1007 698 L 1006 697 L 1002 697 L 1001 696 L 991 694 L 982 690 L 976 686 L 966 676 L 962 670 L 957 659 L 954 647 L 946 651 L 934 659 L 919 673 L 908 688 L 900 702 L 900 704 L 897 709 L 897 711 L 895 714 L 892 723 L 892 726 L 889 735 L 889 739 L 888 740 L 887 763 L 888 764 L 888 772 L 889 773 L 890 782 L 897 803 L 895 790 L 894 789 L 894 785 L 893 784 L 892 758 L 893 757 L 893 748 L 894 747 L 895 737 L 896 736 L 896 733 L 897 732 L 897 729 L 900 720 L 910 699 L 919 685 L 934 668 L 950 655 L 952 657 L 953 665 L 958 677 L 962 683 L 969 690 L 976 695 L 986 700 L 995 703 L 998 703 L 999 704 L 1003 704 L 1004 705 L 1008 705 L 1009 706 L 1015 707 L 1030 714 L 1036 718 L 1053 734 L 1057 740 L 1061 750 L 1067 756 L 1074 759 L 1087 760 L 1088 759 L 1095 758 L 1101 755 L 1110 747 L 1117 736 L 1119 730 L 1119 725 L 1120 724 L 1119 714 L 1117 708 L 1115 706 L 1109 693 L 1107 691 L 1104 684 L 1102 682 L 1099 675 L 1092 664 L 1078 637 L 1072 619 L 1071 603 L 1068 594 L 1061 584 L 1049 571 L 1043 563 L 1052 545 L 1052 543 L 1058 530 L 1061 516 L 1062 515 Z" fill="#000000" stroke="#000000" stroke-width="7" stroke-linejoin="round" stroke-linecap="round"/>
  </g>
</svg>